# xmcd
#
# Track frame offsets: 
#        150
#        15272
#        26741
#        37233
#        50239
#        65142
#        76896
#        87972
#        101262
#        113857
#        125789
#        142126
#        153238
#        164641
#        176555
#        189728
#        199590
#        218658
#        230076
#        243368
#
# Disc length: 3400 seconds
#
# Revision: 0
# Processed by: cddbd v1.5.2PL0 Copyright (c) Steve Scherf et al.
# Submitted via: ExactAudioCopy v1.3
#
DISCID=220d4614
DTITLE=Various Artist - Queens Of Country
DYEAR=1900
DGENRE=Country
TTITLE0=Billie Jo Spears - Blanket On The Ground
TTITLE1=Patsy Cline  - Walking After Midnight
TTITLE2=Dolly Parton - Honky Tonk Angels
TTITLE3=Lynn Anderson - Rose Garden
TTITLE4=Jeannie C. Riley - - Harper Valley PTA
TTITLE5=Tammy Wynette - Stand By Your Man
TTITLE6=The Kendalls - Heavens Just A Sin Away
TTITLE7=Patti Page - Tennessee Waltz
TTITLE8=Kitty Wells - Making Believe
TTITLE9=Billie Jo Spears - You Never Can Tell
TTITLE10=Crystal Gayle - When I Dream
TTITLE11=Patsy Cline - Just Out Of Reach
TTITLE12=Lynn Anderson - Listen To A Country Song
TTITLE13=Wanda Jackson - Right Or Wrong
TTITLE14=Dottie West - Blue Fiddle waltz
TTITLE15=Brenda Lee - I'm Sorry
TTITLE16=Bobby Gentry - Ode To Billy Joe
TTITLE17=Sammie Smith - Help Me Make It Through The Night
TTITLE18=Tammy Wynette - D.I.V.O.R.C.E
TTITLE19=Skeeter Davis - End Of The World
EXTD=
EXTT0=
EXTT1=
EXTT2=
EXTT3=
EXTT4=
EXTT5=
EXTT6=
EXTT7=
EXTT8=
EXTT9=
EXTT10=
EXTT11=
EXTT12=
EXTT13=
EXTT14=
EXTT15=
EXTT16=
EXTT17=
EXTT18=
EXTT19=
PLAYORDER=
